File Name

The Shortcut 2009 BRRip H264 LKRG-Wrath.mp4

File Size
Format                           : MPEG-4
Format profile                   : Base Media
Codec ID                         : isom
File size                        : 1.50 GiB
Duration                         : 1h 25mn
Overall bit rate                 : 2 517 Kbps

Video
ID                               : 1
Format                           : AVC
Format/Info                      : Advanced Video Codec
Format profile                   : High@L4.1
Format settings, CABAC           : Yes
Format settings, ReFrames        : 3 frames
Codec ID                         : avc1
Codec ID/Info                    : Advanced Video Coding
Duration                         : 1h 25mn
Bit rate mode                    : Variable
Bit rate                         : 2 069 Kbps
Maximum bit rate                 : 12.5 Mbps
Width                            : 1 280 pixels
Height                           : 536 pixels
Display aspect ratio             : 2.35:1
Frame rate mode                  : Constant
Frame rate                       : 23.976 fps
Resolution                       : 24 bits
Colorimetry                      : 4:2:0
Scan type                        : Progressive
Bits/(Pixel*Frame)               : 0.126
Stream size                      : 1.23 GiB (82%)

Audio #1
ID                               : 2
Format                           : AAC
Format/Info                      : Advanced Audio Codec
Format version                   : Version 4
Format profile                   : LC
Format settings, SBR             : No
Codec ID                         : 40
Duration                         : 1h 25mn
Bit rate mode                    : Variable
Bit rate                         : 128 Kbps
Maximum bit rate                 : 135 Kbps
Channel(s)                       : 2 channels
Channel positions                : L R
Sampling rate                    : 48.0 KHz
Resolution                       : 16 bits
Stream size                      : 78.0 MiB (5%)

Audio #2
ID                               : 3
Format                           : AAC
Format/Info                      : Advanced Audio Codec
Format version                   : Version 4
Format profile                   : LC
Format settings, SBR             : No
Codec ID                         : 40
Duration                         : 1h 25mn
Bit rate mode                    : Variable
Bit rate                         : 320 Kbps
Maximum bit rate                 : 337 Kbps
Channel(s)                       : 6 channels
Channel positions                : Front: L C R, Rear: L R, LFE
Sampling rate                    : 48.0 KHz
Resolution                       : 16 bits
Stream size                      : 195 MiB (13%)

English SRT                      : N/A

Language                         : English

Info Hash: 5672feb6d297c051af1a510974719938f5630984
